<svg height="200px" width="200px" version="1.1" id="Layer_1" xmlns="http://www.w3.org/2000/svg"
    xmlns:xlink="http://www.w3.org/1999/xlink" viewBox="0 0 512 512" xml:space="preserve" fill="#000000">
    <g id="SVGRepo_bgCarrier" stroke-width="0"></g>
    <g id="SVGRepo_tracerCarrier" stroke-linecap="round" stroke-linejoin="round"></g>
    <g id="SVGRepo_iconCarrier">
        <path style="fill:#D3D7DF;"
            d="M256,499.2c-112.922,0-204.8-91.878-204.8-204.8S143.078,89.6,256,89.6s204.8,91.878,204.8,204.8 S368.922,499.2,256,499.2z M256,268.8c-14.114,0-25.6,11.486-25.6,25.6c0,10.718,6.869,20.361,17.084,23.996l8.516,3.021 l8.516-3.021c10.214-3.635,17.084-13.278,17.084-23.996C281.6,280.286,270.114,268.8,256,268.8z">
        </path>
        <circle style="fill:#6FB0B6;" cx="256" cy="294.4" r="25.6"></circle>
        <g>
            <path style="fill:#573A32;"
                d="M401.545,132.966l18.057-22.571l-20.002-16l-18.005,22.502 c-32.222-22.844-70.895-37.009-112.794-39.45V25.6h38.4c7.074,0,12.8-5.726,12.8-12.8S314.274,0,307.2,0H204.8 C197.726,0,192,5.726,192,12.8s5.726,12.8,12.8,12.8h38.4v51.849c-41.899,2.441-80.572,16.614-112.794,39.458l-18.005-22.502 l-20.002,16l18.057,22.571C66.313,172.791,38.4,230.263,38.4,294.4C38.4,414.575,135.825,512,256,512s217.6-97.425,217.6-217.6 C473.6,230.263,445.688,172.791,401.545,132.966z M256,486.4c-105.865,0-192-86.135-192-192s86.135-192,192-192s192,86.135,192,192 S361.865,486.4,256,486.4z">
            </path>
            <path style="fill:#573A32;"
                d="M256,256c-21.205,0-38.4,17.195-38.4,38.4c0,16.691,10.718,30.763,25.6,36.053V460.8h25.6V330.453 c14.882-5.291,25.6-19.354,25.6-36.053C294.4,273.195,277.205,256,256,256z M256,307.2c-7.057,0-12.8-5.743-12.8-12.8 s5.743-12.8,12.8-12.8c7.057,0,12.8,5.743,12.8,12.8S263.057,307.2,256,307.2z">
            </path>
            <path style="fill:#573A32;"
                d="M256,128v25.6c77.636,0,140.8,63.164,140.8,140.8c0,64.316-43.392,118.571-102.4,135.339v26.428 c73.353-17.357,128-83.106,128-161.766C422.4,202.496,347.904,128,256,128z">
            </path>
        </g>
    </g>
</svg>